<svg id="Layer_1" data-name="Layer 1" xmlns="http://www.w3.org/2000/svg" viewBox="0 0 702.38 449.48"><defs><style>.cls-1{fill:#f2f2e1;stroke:#006837;stroke-miterlimit:10;stroke-width:38px;}.cls-2{fill:#003719;}.cls-3{fill:#cdcb88;opacity:0.47;}</style></defs><ellipse class="cls-1" cx="546.5" cy="352.5" rx="336.5" ry="198.5" transform="translate(-254.36 -12.39) rotate(-11.44)"/><rect class="cls-2" x="253.71" y="321.55" width="468.26" height="69.19" transform="translate(-256.24 -23.95) rotate(-11.44)"/><rect class="cls-2" x="717.07" y="276.75" width="17.72" height="61.59" transform="matrix(0.98, -0.2, 0.2, 0.98, -241.88, 22.3)"/><polygon class="cls-2" points="650.37 161.15 545.41 208.21 533.19 147.84 648.2 150.4 650.37 161.15"/><rect class="cls-3" x="282.5" y="322.56" width="400.77" height="69.19" transform="translate(-256.54 -24.91) rotate(-11.44)"/><path class="cls-2" d="M628.51,292c3.65,18-66.14,47.38-155.89,65.54s-165.45,18.25-169.1.21" transform="translate(-195.31 -127.76)"/><rect class="cls-2" x="717.07" y="276.75" width="17.72" height="61.59" transform="matrix(0.98, -0.2, 0.2, 0.98, -241.88, 22.3)"/></svg>